<svg width="250" height="250" viewBox="0 0 250 250" xmlns="http://www.w3.org/2000/svg"><title>Group</title><defs><linearGradient x1="50%" y1="0%" x2="50%" y2="100%" id="a"><stop stop-color="#C1C9C0" offset="0%"/><stop stop-color="#82919B" offset="100%"/></linearGradient></defs><g fill="none" fill-rule="evenodd"><rect fill="url(#a)" width="250" height="250" rx="125"/><path d="M109.184 50.194C113.974 38.334 123.637 30 123.637 30s9.21 7.94 14.104 19.353c8.978-9.22 21.214-13.26 21.214-13.26s5.905 11.725 5.616 24.74c12.014-5.44 25.39-4.45 25.39-4.45s.98 13.22-4.354 25.178c13.547-.76 26.105 5.565 26.105 5.565s-4.192 12.7-13.785 21.715C210.253 113.493 219 123.637 219 123.637s-7.94 9.21-19.353 14.104c9.22 8.978 13.26 21.214 13.26 21.214s-11.725 5.905-24.74 5.616c5.44 12.014 4.45 25.39 4.45 25.39s-13.624 1.01-25.722-4.6c.853 13.64-5.55 26.35-5.55 26.35s-13.526-4.465-22.57-14.724C134.3 209.806 123.638 219 123.638 219s-10.144-8.747-14.797-21.075c-9.015 9.593-21.715 13.786-21.715 13.786s-6.217-12.344-5.58-25.76c-11.942 5.3-25.113 4.326-25.113 4.326s-1.006-13.604 4.59-25.695c-12.606-.022-23.733-5.626-23.733-5.626s3.935-11.922 12.904-20.863C38.334 133.3 30 123.638 30 123.638s8.747-10.144 21.075-14.797C41.482 99.825 37.29 87.125 37.29 87.125s11.91-6 25.045-5.61C57.598 69.903 58.51 57.58 58.51 57.58s12.5-.925 24.186 3.928C82.573 48.703 88.32 37.29 88.32 37.29s11.923 3.935 20.864 12.904zm46.866 85.867c-.26.732-.036 1.75-.355 2.517-1.468 12.938-12.408 24.69-25.1 26.954-1.29.516-2.817.504-4.143.72h-4.854c-1.326-.216-2.853-.204-4.144-.72-13.686-2.383-24.832-15.728-25.454-29.59v-4.072c.434-2.708.985-5.523 2.042-8.11 1.07-2.085 2.173-4.158 3.434-6.11l4.025-5.51c9.005-10.83 16.89-22.463 22.82-35.138l1.635 3.504c4.9 12.082 12.632 22.78 21.074 32.83.91 1.355 1.893 2.672 2.958 3.954 1.587 2.468 3.138 4.96 4.38 7.667.853 2.29 1.386 4.756 1.682 7.152v3.954z" fill="#FFF"/></g></svg>