<?xml version="1.0" encoding="UTF-8"?>
<svg width="256px" height="256px" viewBox="0 0 256 256" version="1.1" xmlns="http://www.w3.org/2000/svg" xmlns:xlink="http://www.w3.org/1999/xlink">
    <!-- Generator: Sketch 39 (31667) - http://www.bohemiancoding.com/sketch -->
    <title>Raspberry Pi</title>
    <desc>Created with Sketch.</desc>
    <defs></defs>
    <g id="Page-1" stroke="none" stroke-width="1" fill="none" fill-rule="evenodd">
        <g id="Raspberry-Pi">
            <g id="Group" transform="translate(28.000000, 0.000000)">
                <path d="M54.2868388,0.234291771 C52.9974284,0.274394868 51.6087641,0.751754533 50.0338117,1.99719275 C46.1755201,0.506073082 42.4347942,-0.0119252441 39.0895165,3.02372775 C33.9237522,2.35220084 32.245057,3.73788563 30.9732102,5.35564854 C29.8392359,5.33208368 22.4874626,4.18740307 19.116178,9.22742538 C10.6439683,8.22270572 7.96632106,14.2217462 11.0002279,19.8158996 C9.26991059,22.5005077 7.47699849,25.1526248 11.523502,30.2704826 C10.0920509,33.1209372 10.9793511,36.2131102 14.3513126,39.9552803 C13.4614117,43.9623766 15.2106464,46.7894449 18.3481891,48.9927587 C17.7613939,54.4762287 23.3657494,57.6642678 25.0391008,58.8003794 C25.6816863,61.9954522 27.0209374,65.0104324 33.4222456,66.6774672 C34.4779141,71.4389958 38.3250903,72.2612664 42.050497,73.2606304 C29.7374525,80.433629 19.178274,89.8713529 19.2498822,113.028106 L17.4463179,116.252635 C3.32774973,124.857377 -9.37468654,152.513946 10.4885678,174.993388 C11.7860297,182.029996 13.9619565,187.0843 15.8994387,192.678097 C18.7971831,215.218593 37.7089393,225.773148 42.6969301,227.021371 C50.0063084,232.601243 57.7909371,237.895837 68.3255336,241.604445 C78.2562702,251.869081 89.014954,255.781204 99.8324207,255.774777 C99.9910097,255.774677 100.152531,255.776562 100.311162,255.774777 C111.128629,255.781525 121.886957,251.869438 131.818049,241.604445 C142.35229,237.895837 150.137275,232.601243 157.446653,227.021371 C162.434644,225.773184 181.346329,215.218593 184.244144,192.678097 C186.181448,187.0843 188.357518,182.029996 189.655015,174.993388 C209.517913,152.512161 196.815833,124.853806 182.696909,116.249064 L180.890673,113.024964 C180.962163,89.8699961 170.403102,80.4322722 158.090058,73.2574884 C161.815465,72.2583386 165.662712,71.4360681 166.718309,66.6743252 C173.119582,65.0070047 174.459118,61.9920603 175.101454,58.7972374 C176.77509,57.6613757 182.379125,54.4730868 181.792366,48.9896167 C184.929837,46.7860887 186.679179,43.9588775 185.789242,39.9521384 C189.161204,36.2099682 190.048682,33.1179738 188.617053,30.2673406 C192.664162,25.1516251 190.868614,22.4995079 189.140755,19.8148999 C192.172524,14.2207464 189.497014,8.221706 181.021598,9.22642566 C177.651382,4.18640335 170.301747,5.33108396 169.165278,5.35464881 C167.893432,3.73688591 166.215449,2.35120112 161.049685,3.02272803 C157.704407,-0.0129249651 153.963681,0.505073361 150.105389,1.99622873 C145.523891,-1.62704603 142.492122,1.27739358 139.029278,2.37555146 C133.482316,0.559022594 132.214032,3.04714979 129.488646,4.06036709 C123.439358,2.77926025 121.601058,5.56851771 118.701105,8.51233919 L115.327754,8.44539358 C106.203589,13.8342471 101.670898,24.8072569 100.064168,30.448183 C98.4566886,24.8061858 93.9343648,13.833176 84.8119813,8.44539358 L81.4386304,8.51233919 C78.5351146,5.56851771 76.696815,2.77929596 70.6475269,4.06036709 C67.9221409,3.04714979 66.6574193,0.559022594 61.1068946,2.37555146 C58.8340652,1.65485969 56.7437832,0.15674198 54.2823856,0.23329205 L54.2868388,0.234291771 Z" id="Shape" fill="#000000"></path>
                <path d="M36.1211615,23.9418912 C60.3282892,36.4494728 74.4012562,46.567364 82.1107141,55.1846025 C78.1626451,71.043749 57.5658523,71.7674756 50.0345242,71.3225997 C51.5765583,70.6032647 52.8631898,69.7416837 53.3194159,68.4178031 C51.4296368,67.0718215 44.728928,68.2759891 40.0508831,65.6420775 C41.8478922,65.2689674 42.6884511,64.9054974 43.52901,63.5764396 C39.1092533,62.1637266 34.3485562,60.9463163 31.548712,58.6060407 C33.0597158,58.6247498 34.4704682,58.9448033 36.4437189,57.5732218 C32.4849622,55.4351755 28.260792,53.7407197 24.9789286,50.4727029 C27.0257112,50.4224919 29.232312,50.4524229 29.8739355,49.6980976 C26.2507753,47.4484753 23.1937117,44.9465662 20.6631997,42.2101869 C23.5275269,42.5567045 24.7370283,42.2583092 25.429597,41.758313 C22.6907444,38.9468831 19.2242671,36.5729741 17.5715788,33.1085835 C19.6983062,33.8432 21.6439824,34.1244073 23.0465764,33.0440301 C22.1158839,30.9397958 18.1284126,29.6986778 15.8326757,24.7813356 C18.0715535,24.9989106 20.4462376,25.2708775 20.9211316,24.7813356 C19.8819224,20.5382338 18.098843,18.1528279 16.3499646,15.6813746 C21.1416563,15.609966 28.4015146,15.6999409 28.072687,15.2939827 L25.109854,12.2600792 C29.7903927,10.9971459 34.5795906,12.4629369 38.0563281,13.5511119 C39.617422,12.3165635 38.0286823,10.7554633 36.1240472,9.16162232 C40.1016857,9.69383096 43.6959889,10.6102895 46.9447202,11.8727944 C48.6805595,10.3020541 45.8175505,8.7312781 44.4327337,7.1605378 C50.5778557,8.32899749 53.1814009,9.97071799 55.7689144,11.6146522 C57.6461888,9.81129819 55.8763837,8.2786901 54.6095388,6.7088781 C59.2430512,8.42875537 61.6296343,10.6492073 64.1423333,12.8410957 C64.9942213,11.6888815 66.3065748,10.8443671 64.722039,8.06421423 C68.0118114,9.96464826 70.4895257,12.2041305 72.3224814,14.7130734 C74.357935,13.4141858 73.5351535,11.63786 73.5462688,10.0008167 C76.9651497,12.7880748 79.1349132,15.7542114 81.7908286,18.6505462 C82.3258236,18.2601551 82.7942694,16.9361317 83.2078512,14.841966 C91.3644149,22.7726103 102.889769,42.7477512 86.1706842,50.6676842 C71.9416755,38.9066801 54.9480923,30.3579939 36.1162095,23.9451403 L36.1211615,23.9418912 Z" id="Shape" fill="#75A928"></path>
                <path d="M164.563437,23.9418912 C140.35916,36.4505439 126.286905,46.5655788 118.577447,55.1846025 C122.525516,71.043749 143.122309,71.7674756 150.653637,71.3225997 C149.111603,70.6032647 147.824972,69.7416837 147.368746,68.4178031 C149.258525,67.0718215 155.959234,68.2759891 160.637278,65.6420775 C158.840269,65.2689674 157.99971,64.9054974 157.159152,63.5764396 C161.578908,62.1637266 166.339605,60.9463163 169.13945,58.6060407 C167.628446,58.6247498 166.217693,58.9448033 164.244443,57.5732218 C168.203199,55.4351755 172.427369,53.7407197 175.709233,50.4727029 C173.66245,50.4224919 171.45585,50.4524229 170.814226,49.6980976 C174.437386,47.4484753 177.49445,44.9465662 180.024962,42.2101869 C177.160635,42.5567045 175.951133,42.2583092 175.258565,41.758313 C177.997417,38.9468831 181.463894,36.5729741 183.116583,33.1085835 C180.989855,33.8432 179.044179,34.1244073 177.641585,33.0440301 C178.572278,30.9397958 182.559749,29.6986778 184.855486,24.7813356 C182.616608,24.9989106 180.241924,25.2708775 179.76703,24.7813356 C180.808127,20.5364485 182.591278,18.1510427 184.339978,15.6795894 C179.548286,15.6082772 172.288428,15.6982806 172.617256,15.2922689 L175.580089,12.2583654 C170.89955,10.9954321 166.110352,12.4612231 162.633615,13.549398 C161.072521,12.3148497 162.661261,10.7537495 164.565896,9.15990851 C160.588257,9.69211715 156.993954,10.6085757 153.745223,11.8710806 C152.009383,10.3003403 154.872392,8.7295643 156.257209,7.15882399 C150.112087,8.32728368 147.508542,9.96900418 144.921028,11.6129384 C143.043754,9.80958438 144.813559,8.27697629 146.080404,6.7071643 C141.446892,8.42704156 139.060308,10.6474934 136.547609,12.8393819 C135.695722,11.6871676 134.383368,10.8426533 135.967904,8.06250042 C132.678131,9.96293445 130.200417,12.2024167 128.367461,14.7113596 C126.332008,13.412472 127.154789,11.6361462 127.143674,9.99910293 C123.724793,12.7863609 121.55503,15.7524976 118.899114,18.6488324 C118.364119,18.2584413 117.895673,16.9344179 117.482092,14.8402522 C109.325528,22.7708965 97.8001734,42.7460374 114.519259,50.6659704 C128.740786,38.9024669 145.7333,30.3544948 164.566608,23.9416413 L164.563437,23.9418912 Z" id="Shape" fill="#75A928"></path>
                <path d="M129.657528,185.434601 C129.712334,195.041625 124.197833,203.940632 115.204065,208.758825 C106.210297,213.577018 95.1136722,213.577018 86.1199042,208.758825 C77.1261363,203.940632 71.6116345,195.041625 71.6664411,185.434601 C71.6116345,175.827577 77.1261363,166.928569 86.1199042,162.110377 C95.1136722,157.292184 106.210297,157.292184 115.204065,162.110377 C124.197833,166.928569 129.712334,175.827577 129.657528,185.434601 L129.657528,185.434601 Z" id="Shape" fill="#BC1142"></path>
                <path d="M97.6515675,134.542041 C97.6515677,143.853976 91.8032468,152.45856 82.3096107,157.114528 C72.8159747,161.770496 61.1193326,161.770496 51.6256965,157.114528 C42.1320604,152.45856 36.2837395,143.853976 36.2837397,134.542041 C36.2837394,125.230105 42.1320603,116.625522 51.6256964,111.969554 C61.1193325,107.313586 72.8159747,107.313586 82.3096108,111.969554 C91.803247,116.625522 97.6515678,125.230105 97.6515675,134.542041 L97.6515675,134.542041 Z" id="Shape" fill="#BC1142" transform="translate(66.967654, 134.542041) rotate(-56.542503) translate(-66.967654, -134.542041) "></path>
                <path d="M163.912862,133.113868 C163.912862,142.425804 158.064541,151.030387 148.570905,155.686355 C139.077269,160.342323 127.380627,160.342323 117.886991,155.686355 C108.393355,151.030387 102.545034,142.425804 102.545034,133.113868 C102.545034,123.801932 108.393355,115.197349 117.886991,110.541381 C127.380627,105.885413 139.077269,105.885413 148.570905,110.541381 C158.064541,115.197349 163.912862,123.801932 163.912862,133.113868 L163.912862,133.113868 Z" id="Shape" fill="#BC1142" transform="translate(133.228948, 133.113868) rotate(236.542503) translate(-133.228948, -133.113868) "></path>
                <path d="M23.8373303,121.783877 C36.8087425,118.299135 28.2164734,175.5653 17.6622825,170.866611 C6.05285071,161.508508 2.31354988,134.101869 23.8373303,121.783877 L23.8373303,121.783877 Z" id="Shape" fill="#BC1142"></path>
                <path d="M173.740685,121.069791 C160.767848,117.586156 169.361542,174.854784 179.915733,170.156095 C191.525164,160.796921 195.264465,133.387782 173.740685,121.069791 L173.740685,121.069791 Z" id="Shape" fill="#BC1142"></path>
                <path d="M129.667809,78.4245467 C152.053381,74.636318 170.680415,87.9654561 169.928707,112.292954 C169.192354,121.61928 121.420399,79.8130879 129.667809,78.4245467 L129.667809,78.4245467 Z" id="Shape" fill="#BC1142"></path>
                <path d="M67.8175787,77.7104603 C45.430225,73.9222315 26.8049728,87.2542259 27.5566806,111.579582 C28.2930692,120.905551 76.0649886,79.0993584 67.8175787,77.7104603 L67.8175787,77.7104603 Z" id="Shape" fill="#BC1142"></path>
                <path d="M99.9735708,72.0370432 C86.6127667,71.6887547 73.790271,81.9749847 73.7592764,87.9411771 C73.7220045,95.190583 84.32273,102.613155 100.064417,102.801317 C116.139919,102.916717 126.397702,96.8601172 126.44936,89.3786332 C126.508086,80.9024268 111.828822,71.9060084 99.9732145,72.0366862 L99.9735708,72.0370432 Z" id="Shape" fill="#BC1142"></path>
                <path d="M100.789405,220.695565 C112.438026,220.186028 128.06856,224.455944 128.099198,230.120078 C128.29254,235.620329 113.923628,248.047576 100.016678,247.807286 C85.6141711,248.429934 71.4913277,235.983442 71.6762265,231.669289 C71.460668,225.343911 89.2134619,220.405289 100.789405,220.695565 L100.789405,220.695565 Z" id="Shape" fill="#BC1142"></path>
                <path d="M57.7639326,187.12636 C66.0573,197.139994 69.8379269,214.732586 62.9168715,219.918639 C56.3691762,223.877534 40.4682412,222.247132 29.1662615,205.975386 C21.5440872,192.321339 22.5262949,178.427001 27.8780624,174.345283 C35.8810782,169.459503 48.2464928,176.058734 57.7643245,187.12636 L57.7639326,187.12636 Z" id="Shape" fill="#BC1142"></path>
                <path d="M142.154708,183.952245 C133.181597,194.485735 128.185056,213.697517 134.73097,219.885077 C140.989739,224.692307 157.791299,224.020351 170.202314,206.761596 C179.214257,195.170187 176.194601,175.812374 171.046935,170.671665 C163.400179,164.744033 152.422751,172.330095 142.154637,183.949389 L142.154708,183.952245 Z" id="Shape" fill="#BC1142"></path>
            </g>
        </g>
    </g>
</svg>