<svg width="256" height="256" viewBox="0 0 256 256" xmlns="http://www.w3.org/2000/svg"><title>Raspberry Pi</title><g fill="none" fill-rule="evenodd"><path d="M82.287.234c-1.29.04-2.678.518-4.253 1.763-3.858-1.49-7.6-2.01-10.944 1.027-5.166-.672-6.845.714-8.117 2.332-1.134-.024-8.486-1.17-11.857 3.87-8.472-1.003-11.15 4.996-8.116 10.59-1.73 2.685-3.523 5.337.524 10.454-1.432 2.85-.545 5.943 2.827 9.685-.89 4.007.86 6.834 3.998 9.038-.587 5.483 5.018 8.67 6.69 9.807.644 3.195 1.983 6.21 8.384 7.877 1.056 4.762 4.903 5.584 8.628 6.584-12.313 7.174-22.872 16.61-22.8 39.768l-1.804 3.225c-14.118 8.604-26.82 36.26-6.957 58.74 1.296 7.037 3.472 12.09 5.41 17.685 2.897 22.54 21.81 33.095 26.797 34.343 7.31 5.58 15.094 10.876 25.63 14.584 9.93 10.265 20.688 14.177 31.505 14.17.16 0 .32.003.48 0 10.817.008 21.575-3.905 31.506-14.17 10.534-3.708 18.32-9.003 25.63-14.583 4.987-1.247 23.898-11.8 26.796-34.342 1.937-5.594 4.114-10.648 5.41-17.685 19.864-22.48 7.162-50.14-6.957-58.744l-1.806-3.225c.072-23.155-10.487-32.593-22.8-39.768 3.725-1 7.573-1.82 8.628-6.583 6.402-1.667 7.74-4.682 8.383-7.877 1.675-1.136 7.28-4.324 6.692-9.807 3.138-2.204 4.887-5.03 3.997-9.038 3.37-3.742 4.26-6.834 2.827-9.685 4.047-5.115 2.252-7.767.524-10.452 3.033-5.594.357-11.593-8.118-10.59-3.37-5.04-10.72-3.894-11.857-3.87-1.272-1.618-2.95-3.004-8.115-2.332-3.346-3.036-7.086-2.518-10.945-1.027-4.58-3.623-7.613-.72-11.076.38-5.548-1.817-6.816.67-9.54 1.684-6.05-1.28-7.89 1.51-10.79 4.452l-3.372-.067c-9.124 5.39-13.657 16.362-15.264 22.003-1.607-5.642-6.13-16.615-15.252-22.003l-3.373.067c-2.905-2.943-4.743-5.733-10.792-4.452-2.726-1.013-3.99-3.5-9.54-1.684-2.274-.72-4.364-2.22-6.826-2.143h.005z" fill="#000"/><path d="M64.12 23.942C88.33 36.45 102.4 46.567 110.11 55.185c-3.947 15.86-24.544 16.582-32.075 16.138 1.542-.72 2.828-1.58 3.284-2.905-1.89-1.346-8.59-.142-13.27-2.776 1.798-.373 2.638-.737 3.48-2.066-4.42-1.412-9.18-2.63-11.98-4.97 1.51.02 2.92.34 4.894-1.033-3.96-2.138-8.183-3.832-11.465-7.1 2.046-.05 4.252-.02 4.894-.775-3.623-2.25-6.68-4.75-9.21-7.488 2.864.347 4.073.048 4.766-.452-2.74-2.81-6.206-5.185-7.858-8.65 2.126.735 4.072 1.016 5.475-.064-.93-2.104-4.92-3.345-7.214-8.263 2.24.22 4.613.49 5.088 0-1.038-4.242-2.82-6.627-4.57-9.1 4.792-.07 12.052.02 11.723-.386L53.11 12.26c4.68-1.263 9.47.203 12.946 1.29 1.56-1.233-.027-2.795-1.932-4.388 3.978.532 7.572 1.448 10.82 2.71 1.737-1.57-1.126-3.14-2.51-4.71 6.144 1.167 8.747 2.81 11.335 4.453 1.876-1.804.106-3.336-1.16-4.906 4.633 1.72 7.02 3.94 9.532 6.13.852-1.15 2.165-1.996.58-4.776 3.29 1.9 5.768 4.14 7.6 6.65 2.036-1.3 1.213-3.076 1.224-4.713 3.42 2.788 5.59 5.754 8.245 8.65.536-.39 1.004-1.714 1.418-3.808 8.156 7.93 19.682 27.906 2.963 35.826-14.228-11.76-31.222-20.31-50.054-26.723l.005-.003zM192.563 23.942c-24.204 12.51-38.276 22.624-45.986 31.243 3.95 15.86 24.545 16.582 32.077 16.138-1.542-.72-2.83-1.58-3.285-2.905 1.89-1.346 8.59-.142 13.267-2.776-1.797-.373-2.637-.737-3.478-2.066 4.42-1.412 9.18-2.63 11.98-4.97-1.512.02-2.922.34-4.896-1.033 3.96-2.138 8.183-3.832 11.465-7.1-2.048-.05-4.254-.02-4.896-.775 3.623-2.25 6.68-4.75 9.21-7.488-2.863.347-4.073.048-4.765-.452 2.737-2.81 6.204-5.185 7.857-8.65-2.127.735-4.073 1.016-5.475-.064.93-2.104 4.918-3.345 7.213-8.263-2.238.22-4.613.49-5.088 0 1.04-4.244 2.824-6.63 4.573-9.1-4.792-.072-12.052.018-11.723-.388l2.963-3.034c-4.68-1.263-9.47.203-12.946 1.29-1.56-1.233.027-2.794 1.932-4.388-3.978.532-7.572 1.45-10.82 2.71-1.737-1.57 1.126-3.14 2.51-4.71-6.144 1.167-8.747 2.81-11.335 4.453-1.876-1.803-.106-3.336 1.16-4.906-4.633 1.72-7.02 3.94-9.532 6.132-.852-1.153-2.165-1.997-.58-4.777-3.29 1.9-5.768 4.14-7.6 6.648-2.036-1.298-1.213-3.074-1.224-4.71-3.42 2.786-5.59 5.752-8.245 8.65-.536-.392-1.004-1.716-1.418-3.81-8.156 7.93-19.682 27.906-2.963 35.826 14.22-11.764 31.213-20.312 50.047-26.724h-.004z" fill="#75A928"/><path d="M157.658 185.435c.054 9.607-5.46 18.506-14.454 23.324-8.994 4.817-20.09 4.817-29.084 0-8.994-4.82-14.508-13.718-14.454-23.325-.054-9.607 5.46-18.506 14.454-23.325 8.994-4.818 20.09-4.818 29.084 0 8.994 4.82 14.508 13.718 14.454 23.325zM111.884 108.943c7.77 5.133 11.724 14.757 10.374 25.244-1.35 10.487-7.798 20.246-16.917 25.6-9.117 5.353-19.52 5.488-27.29.354-7.768-5.132-11.722-14.755-10.373-25.243 1.35-10.487 7.798-20.246 16.917-25.6 9.118-5.353 19.52-5.488 27.29-.354zM144.312 107.514c7.77-5.133 18.172-4.998 27.29.356 9.12 5.353 15.568 15.112 16.917 25.6 1.35 10.486-2.606 20.11-10.374 25.243-7.77 5.134-18.172 5-27.29-.355-9.12-5.353-15.568-15.112-16.917-25.6-1.35-10.487 2.603-20.11 10.372-25.244zM51.837 121.784c12.972-3.485 4.38 53.78-6.175 49.083-11.61-9.358-15.348-36.765 6.175-49.083zM201.74 121.07c-12.972-3.484-4.378 53.785 6.176 49.086 11.61-9.36 15.348-36.768-6.175-49.086zM157.668 78.425c22.385-3.79 41.012 9.54 40.26 33.868-.736 9.326-48.508-32.48-40.26-33.868zM95.818 77.71c-22.388-3.788-41.013 9.544-40.26 33.87.735 9.326 48.507-32.48 40.26-33.87zM127.974 72.037c-13.36-.348-26.184 9.938-26.215 15.904-.038 7.25 10.563 14.673 26.304 14.86 16.076.117 26.334-5.94 26.385-13.42.058-8.478-14.62-17.474-26.477-17.343zM128.79 220.696c11.648-.51 27.28 3.76 27.31 9.424.193 5.5-14.176 17.928-28.083 17.687-14.403.623-28.526-11.824-28.34-16.138-.216-6.326 17.536-11.265 29.112-10.974zM85.764 187.126c8.293 10.014 12.074 27.607 5.153 32.793-6.548 3.958-22.45 2.327-33.75-13.945-7.623-13.654-6.64-27.548-1.29-31.63 8.004-4.885 20.37 1.714 29.887 12.78zM170.155 183.952c-8.973 10.534-13.97 29.746-7.424 35.933 6.26 4.807 23.06 4.135 35.472-13.123 9.012-11.592 5.993-30.95.845-36.09-7.647-5.928-18.624 1.658-28.892 13.277v.002z" fill="#BC1142"/></g></svg>