<?xml version="1.0" encoding="UTF-8"?>
<svg width="256px" height="256px" viewBox="0 0 256 256" version="1.1" xmlns="http://www.w3.org/2000/svg" xmlns:xlink="http://www.w3.org/1999/xlink">
    <!-- Generator: Sketch 39 (31667) - http://www.bohemiancoding.com/sketch -->
    <title>React</title>
    <desc>Created with Sketch.</desc>
    <defs></defs>
    <g id="Page-1" stroke="none" stroke-width="1" fill="none" fill-rule="evenodd">
        <g id="React" fill="#53C1DE">
            <path d="M211.21697,88.0803609 C208.482672,87.1424434 205.725175,86.2735702 202.947104,85.4745686 C203.407808,83.602543 203.833843,81.7221551 204.224989,79.8343699 C210.484802,49.4471032 206.391934,24.9672085 192.414792,16.9088073 C179.014062,9.18010933 157.096757,17.2385105 134.961166,36.5011362 C132.77999,38.4035727 130.647228,40.3608153 128.564924,42.3709902 C127.170461,41.034343 125.751357,39.7236426 124.308342,38.4395637 C101.109742,17.8410715 77.8565703,9.16191881 63.8942079,17.244195 C50.5059839,24.9944942 46.5404501,48.0089151 52.1761011,76.806785 C52.7368091,79.6586142 53.369892,82.4957354 54.0747369,85.3154015 C50.7845262,86.2499396 47.6068694,87.2458707 44.5667785,88.3054686 C17.3696745,97.7872781 -2.84217094e-14,112.648934 -2.84217094e-14,128.063128 C-2.84217094e-14,143.984382 18.6452849,159.953386 46.9747488,169.635292 C49.27185,170.416723 51.5880711,171.140779 53.9212543,171.806785 C53.1632802,174.844534 52.4903472,177.902873 51.9032433,180.978219 C46.5302179,209.275849 50.7265439,231.744555 64.0795239,239.447104 C77.8713501,247.399772 101.018789,239.225407 123.55912,219.522798 C125.340654,217.965234 127.129009,216.313308 128.919639,214.581797 C131.175061,216.757906 133.490704,218.870722 135.863871,220.917783 C157.697044,239.705182 179.259634,247.291766 192.601245,239.568753 C206.380565,231.592209 210.857708,207.454523 205.043562,178.087063 C204.600168,175.843944 204.082875,173.553075 203.503052,171.220141 C205.12883,170.740366 206.723912,170.244674 208.280338,169.728518 C237.730793,159.971577 256.891097,144.196984 256.891097,128.063128 C256.891097,112.593226 238.962064,97.6315217 211.21697,88.0803609 Z M204.828687,159.312171 C203.424606,159.777166 201.983007,160.226244 200.514122,160.66168 C197.262566,150.369255 192.874103,139.424246 187.505625,128.117699 C192.629668,117.078326 196.847595,106.274293 200.008198,96.0478094 C202.635592,96.8095375 205.186812,97.6110574 207.644807,98.4580536 C231.417545,106.640378 245.917665,118.740485 245.917665,128.063128 C245.917665,137.994016 230.256762,150.886548 204.829823,159.312171 L204.828687,159.312171 Z M194.278184,180.218765 C196.848732,193.204523 197.215953,204.945368 195.512866,214.123624 C193.982588,222.370751 190.906116,227.868837 187.102023,230.071027 C179.006104,234.75736 161.692138,228.665809 143.021841,212.59903 C140.881044,210.75724 138.72433,208.79039 136.561932,206.709849 C143.800623,198.792424 151.034766,189.58802 158.094962,179.367221 C170.514541,178.265557 182.247427,176.463559 192.887746,174.004428 C193.410723,176.119076 193.876855,178.191658 194.278184,180.218765 L194.278184,180.218765 Z M87.5794043,229.261548 C79.669938,232.05493 73.3703329,232.134514 69.5628293,229.939145 C61.4589518,225.266455 58.0914315,207.223731 62.6856751,183.024653 C63.2320048,180.16483 63.8575444,177.32071 64.5615727,174.495572 C75.0836527,176.822822 86.7312712,178.497487 99.1804096,179.50706 C106.287219,189.508437 113.730553,198.701472 121.23187,206.751915 C119.63764,208.294088 118.005683,209.796777 116.337482,211.258616 C106.370213,219.971876 96.3824799,226.152106 87.5805412,229.261548 L87.5794043,229.261548 Z M50.5241744,159.250778 C37.9977263,154.969183 27.6530039,149.405158 20.5621111,143.334071 C14.1908808,137.876914 10.9734323,132.45955 10.9734323,128.063128 C10.9734323,118.709789 24.919878,106.777943 48.1798709,98.6683815 C51.099335,97.6549617 54.0478415,96.7272267 57.0216014,95.8863685 C60.2367761,106.342508 64.4535665,117.275011 69.542365,128.330301 C64.3876258,139.550442 60.1105794,150.656893 56.8658451,161.235818 C54.7360094,160.6262 52.6214805,159.964319 50.5241744,159.250778 L50.5241744,159.250778 Z M62.946027,74.6989582 C58.1175803,50.0246523 61.3236598,31.4123377 69.3922932,26.7419212 C77.9873147,21.7668135 96.9907255,28.861117 117.020764,46.6457629 C118.300922,47.7826705 119.586764,48.9730127 120.874881,50.2042837 C113.412219,58.2183455 106.037099,67.3420291 98.9916829,77.2854231 C86.9097657,78.4052771 75.3440045,80.2038649 64.7116445,82.6129721 C64.0566986,79.9898416 63.4679725,77.35062 62.946027,74.6978213 L62.946027,74.6989582 Z M173.757001,102.060914 C171.24566,97.7229633 168.641159,93.4396175 165.945309,89.2138578 C174.142413,90.2484437 181.995034,91.6241019 189.369017,93.3078621 C187.155458,100.403302 184.396183,107.822762 181.146901,115.428674 C178.77283,110.924007 176.309039,106.467198 173.757001,102.060914 L173.757001,102.060914 Z M128.568334,58.0466724 C133.629847,63.5299778 138.699318,69.6533622 143.685795,76.2963134 C133.57074,75.8183349 123.438809,75.8160586 113.32354,76.289492 C118.314565,69.7079338 123.427238,63.5936447 128.568334,58.0466724 L128.568334,58.0466724 Z M83.0897561,102.13595 C80.5696708,106.507191 78.151947,110.936652 75.8385593,115.420715 C72.642712,107.840952 69.9084492,100.388523 67.6755627,93.1918975 C75.005206,91.5513398 82.8214459,90.2109257 90.9651151,89.1933934 C88.2390532,93.445342 85.6132098,97.7607169 83.0897561,102.13595 L83.0897561,102.13595 Z M91.1993181,167.716192 C82.7862018,166.777106 74.8517235,165.504906 67.5243539,163.909825 C69.7924846,156.585866 72.5870035,148.973133 75.8510653,141.230792 C78.1742056,145.718178 80.6025536,150.150312 83.1340955,154.523516 C85.7172762,158.984545 88.4064478,163.383354 91.1993181,167.716192 L91.1993181,167.716192 Z M128.871889,198.854954 C123.670536,193.242041 118.482827,187.034526 113.41563,180.357467 C118.333892,180.550742 123.348792,180.648516 128.445548,180.648516 C133.682145,180.648516 138.858485,180.531414 143.952968,180.304033 C138.950575,187.10274 133.899294,193.319351 128.871889,198.854954 Z M181.251496,140.836285 C184.684957,148.662757 187.579524,156.234562 189.878351,163.434598 C182.429333,165.134274 174.387985,166.503111 165.914613,167.519507 C168.629948,163.214849 171.259377,158.856599 173.801341,154.447343 C176.385402,149.96616 178.869402,145.428017 181.251496,140.836285 L181.251496,140.836285 Z M164.294519,148.965174 C160.403112,155.725177 156.292914,162.356853 151.970441,168.849689 C144.348612,169.394267 136.472116,169.675083 128.445548,169.675083 C120.451951,169.675083 112.675503,169.426101 105.186692,168.940641 C100.752112,162.462923 96.5641607,155.81977 92.6318217,149.02543 C88.717863,142.267139 85.0619656,135.362651 81.6720323,128.32689 C85.0533433,121.289022 88.6981931,114.380835 92.5988514,107.616981 L92.5988514,107.619255 C96.4982858,100.853961 100.653267,94.2392122 105.054811,87.7893125 C112.69483,87.2117634 120.528124,86.909346 128.446685,86.909346 C136.400491,86.909346 144.244017,87.2140373 151.881762,87.796134 C156.238785,94.2361085 160.367192,100.827832 164.259275,107.558999 C168.173347,114.307805 171.866839,121.182152 175.333892,128.171134 C171.902503,135.231323 168.220758,142.167066 164.295656,148.965174 L164.294519,148.965174 Z M186.933761,26.4156288 C195.535604,31.3770936 198.881523,51.3832569 193.476664,77.6196739 C193.122404,79.3288179 192.737309,81.0314252 192.321566,82.7266629 C181.664194,80.2675317 170.090474,78.4371105 157.973313,77.3002029 C150.914254,67.2488026 143.600527,58.1092023 136.258378,50.1985991 C138.182325,48.3437889 140.152056,46.5370642 142.16575,44.7800975 C161.131642,28.2744727 178.857169,21.7577183 186.933761,26.4156288 L186.933761,26.4156288 Z M128.445548,105.123743 C141.115247,105.123743 151.384933,115.394566 151.384933,128.063128 C151.384933,140.732826 141.115247,151.00365 128.445548,151.00365 C115.776987,151.00365 105.506164,140.732826 105.506164,128.063128 C105.506164,115.394566 115.776987,105.123743 128.445548,105.123743 Z" id="Combined-Shape"></path>
        </g>
    </g>
</svg>