<svg width="256" height="256" viewBox="0 0 256 256" xmlns="http://www.w3.org/2000/svg"><title>react</title><path d="M210.484 87.823c-2.725-.934-5.472-1.8-8.24-2.596.458-1.866.883-3.74 1.273-5.62 6.238-30.283 2.16-54.678-11.77-62.708-13.354-7.703-35.195.327-57.254 19.523-2.174 1.896-4.3 3.846-6.374 5.85-1.39-1.332-2.805-2.64-4.243-3.918C100.76 17.828 77.587 9.18 63.673 17.233 50.33 24.956 46.38 47.89 51.995 76.59c.56 2.84 1.19 5.668 1.892 8.478-3.28.93-6.445 1.924-9.475 2.98C17.31 97.498 0 112.308 0 127.668c0 15.865 18.58 31.78 46.812 41.427 2.29.78 4.597 1.5 6.922 2.164-.755 3.027-1.426 6.074-2.01 9.14-5.355 28.198-1.173 50.59 12.133 58.265 13.744 7.925 36.81-.22 59.274-19.855 1.776-1.552 3.558-3.198 5.342-4.924 2.248 2.17 4.556 4.274 6.92 6.314 21.758 18.722 43.246 26.283 56.54 18.586 13.733-7.95 18.194-32.003 12.4-61.268-.442-2.235-.957-4.518-1.535-6.843 1.62-.478 3.21-.972 4.76-1.487 29.35-9.723 48.443-25.443 48.443-41.52 0-15.417-17.867-30.327-45.516-39.845zm-6.366 70.985c-1.4.463-2.836.91-4.3 1.345-3.24-10.257-7.613-21.164-12.963-32.43 5.106-11.002 9.31-21.77 12.46-31.96 2.618.76 5.16 1.558 7.61 2.402 23.69 8.154 38.14 20.212 38.14 29.502 0 9.897-15.607 22.745-40.946 31.14h-.002zm-10.514 20.834c2.562 12.94 2.928 24.64 1.23 33.787-1.524 8.218-4.59 13.697-8.38 15.892-8.07 4.67-25.323-1.4-43.928-17.412-2.134-1.835-4.283-3.795-6.438-5.87 7.214-7.89 14.423-17.06 21.46-27.246 12.375-1.098 24.067-2.894 34.67-5.345.522 2.107.986 4.172 1.386 6.192zM87.276 228.515c-7.882 2.784-14.16 2.863-17.954.675-8.076-4.656-11.432-22.637-6.854-46.752.545-2.85 1.168-5.684 1.87-8.5 10.485 2.32 22.092 3.99 34.498 4.995 7.083 9.967 14.5 19.128 21.975 27.15-1.587 1.537-3.214 3.035-4.876 4.49-9.933 8.684-19.886 14.843-28.657 17.942zM50.35 158.747c-12.484-4.267-22.793-9.812-29.86-15.862-6.348-5.438-9.555-10.836-9.555-15.218 0-9.32 13.898-21.21 37.078-29.292 2.91-1.01 5.847-1.935 8.81-2.773 3.205 10.42 7.407 21.315 12.478 32.332-5.136 11.18-9.398 22.25-12.63 32.79-2.124-.606-4.23-1.266-6.32-1.977zm12.378-84.26c-4.812-24.587-1.617-43.135 6.424-47.79 8.565-4.957 27.502 2.113 47.463 19.836 1.276 1.132 2.557 2.32 3.84 3.546-7.436 7.985-14.786 17.077-21.807 26.986-12.04 1.116-23.565 2.908-34.16 5.31-.653-2.615-1.24-5.245-1.76-7.89v.002zm110.426 27.268c-2.502-4.322-5.098-8.59-7.784-12.802 8.168 1.03 15.994 2.402 23.342 4.08-2.206 7.07-4.955 14.464-8.193 22.044-2.367-4.49-4.823-8.93-7.366-13.322zm-45.032-43.86c5.044 5.463 10.096 11.565 15.065 18.185-10.08-.476-20.176-.478-30.257-.007 4.974-6.558 10.07-12.65 15.192-18.18zm-45.32 43.935c-2.512 4.356-4.92 8.77-7.227 13.24-3.184-7.555-5.91-14.98-8.134-22.153 7.305-1.635 15.094-2.97 23.21-3.984-2.717 4.237-5.334 8.537-7.848 12.897zm8.08 65.353c-8.383-.936-16.29-2.204-23.592-3.793 2.26-7.3 5.045-14.885 8.298-22.6 2.315 4.47 4.735 8.888 7.258 13.246 2.574 4.446 5.254 8.83 8.037 13.147zm37.543 31.03c-5.183-5.593-10.353-11.78-15.403-18.433 4.9.193 9.9.29 14.978.29 5.218 0 10.377-.116 15.454-.343-4.985 6.775-10.02 12.97-15.03 18.487zm52.198-57.817c3.42 7.8 6.306 15.345 8.597 22.52-7.423 1.694-15.437 3.058-23.88 4.07 2.705-4.29 5.325-8.632 7.858-13.026 2.576-4.465 5.05-8.988 7.425-13.564zm-16.898 8.1c-3.878 6.738-7.974 13.346-12.282 19.817-7.595.542-15.444.822-23.443.822-7.966 0-15.715-.248-23.178-.732-4.42-6.455-8.593-13.075-12.51-19.846-3.902-6.735-7.545-13.615-10.923-20.627 3.368-7.013 7-13.897 10.888-20.638v.003c3.886-6.742 8.026-13.334 12.412-19.762 7.614-.575 15.42-.877 23.31-.877 7.927 0 15.744.304 23.355.884 4.342 6.418 8.456 12.987 12.334 19.694 3.9 6.726 7.58 13.576 11.036 20.54-3.42 7.037-7.09 13.948-11 20.723zm22.56-122.123c8.572 4.944 11.907 24.88 6.52 51.026-.352 1.702-.736 3.4-1.15 5.088-10.62-2.45-22.155-4.274-34.23-5.407-7.034-10.016-14.323-19.124-21.64-27.007 1.918-1.848 3.88-3.65 5.888-5.4 18.9-16.448 36.564-22.942 44.612-18.3zM128 104.808c12.626 0 22.86 10.235 22.86 22.86s-10.234 22.86-22.86 22.86c-12.625 0-22.86-10.235-22.86-22.86s10.235-22.86 22.86-22.86z" fill="#53C1DE" fill-rule="evenodd"/></svg>