<svg width="256" height="256" viewBox="0 0 256 256" xmlns="http://www.w3.org/2000/svg"><title>React</title><path d="M211.217 88.08c-2.734-.938-5.492-1.806-8.27-2.605.46-1.872.887-3.753 1.278-5.64 6.26-30.388 2.167-54.868-11.81-62.926-13.4-7.73-35.318.33-57.454 19.59-2.18 1.904-4.313 3.86-6.395 5.87-1.395-1.336-2.814-2.646-4.257-3.93-23.198-20.6-46.45-29.278-60.414-21.196-13.388 7.75-17.354 30.765-11.718 59.563.56 2.852 1.194 5.69 1.9 8.508-3.29.935-6.47 1.93-9.51 2.99C17.37 97.787 0 112.65 0 128.063c0 15.92 18.645 31.89 46.975 41.572 2.297.782 4.613 1.506 6.946 2.172-.757 3.038-1.43 6.096-2.017 9.17-5.373 28.3-1.176 50.768 12.177 58.47 13.79 7.953 36.94-.222 59.48-19.924 1.78-1.558 3.57-3.21 5.36-4.94 2.255 2.175 4.57 4.288 6.944 6.335 21.833 18.787 43.396 26.374 56.737 18.65 13.78-7.976 18.258-32.113 12.444-61.48-.444-2.244-.96-4.535-1.54-6.868 1.625-.48 3.22-.975 4.776-1.49 29.45-9.758 48.61-25.533 48.61-41.667 0-15.47-17.928-30.43-45.673-39.983zm-6.388 71.232c-1.405.465-2.847.914-4.316 1.35-3.25-10.293-7.64-21.238-13.008-32.544 5.124-11.04 9.342-21.844 12.502-32.07 2.628.762 5.18 1.563 7.637 2.41 23.773 8.182 38.273 20.282 38.273 29.605 0 9.93-15.66 22.824-41.088 31.25zm-10.552 20.907c2.57 12.985 2.938 24.725 1.235 33.904-1.53 8.247-4.607 13.745-8.41 15.947-8.097 4.687-25.41-1.404-44.08-17.47-2.142-1.843-4.3-3.81-6.46-5.89 7.238-7.918 14.472-17.122 21.532-27.343 12.42-1.1 24.152-2.903 34.793-5.363.523 2.115.99 4.188 1.39 6.215zm-106.7 49.042c-7.908 2.793-14.208 2.873-18.015.677-8.104-4.674-11.472-22.716-6.877-46.915.546-2.86 1.172-5.704 1.876-8.53 10.522 2.328 22.17 4.002 34.618 5.012 7.107 10 14.55 19.194 22.052 27.245-1.594 1.542-3.226 3.045-4.895 4.507-9.967 8.712-19.955 14.892-28.756 18.002zm-37.054-70.01c-12.526-4.283-22.87-9.847-29.962-15.918-6.37-5.457-9.59-10.874-9.59-15.27 0-9.354 13.948-21.286 37.208-29.396 2.92-1.013 5.868-1.94 8.842-2.782 3.215 10.457 7.432 21.39 12.52 32.444-5.154 11.22-9.43 22.327-12.676 32.906-2.13-.61-4.245-1.272-6.342-1.985zm12.422-84.553c-4.828-24.675-1.622-43.288 6.446-47.958 8.595-4.975 27.6 2.12 47.63 19.904 1.28 1.137 2.565 2.327 3.853 3.558-7.463 8.014-14.838 17.138-21.883 27.08-12.082 1.12-23.648 2.92-34.28 5.33-.655-2.624-1.244-5.263-1.766-7.916zm110.81 27.36c-2.51-4.337-5.115-8.62-7.81-12.846 8.196 1.034 16.05 2.41 23.423 4.094-2.215 7.095-4.974 14.515-8.223 22.12-2.374-4.504-4.838-8.96-7.39-13.367zM128.57 58.048c5.062 5.483 10.13 11.606 15.118 18.25-10.115-.48-20.247-.48-30.362-.008 4.99-6.582 10.103-12.696 15.244-18.243zm-45.478 44.09c-2.52 4.37-4.938 8.8-7.25 13.284-3.197-7.58-5.932-15.03-8.164-22.228 7.33-1.64 15.145-2.98 23.29-4-2.727 4.253-5.353 8.57-7.876 12.944zm8.11 65.58c-8.414-.94-16.348-2.212-23.676-3.807 2.268-7.324 5.063-14.937 8.327-22.68 2.324 4.488 4.753 8.92 7.284 13.294 2.583 4.46 5.272 8.86 8.065 13.192zm37.672 31.138c-5.2-5.613-10.39-11.82-15.456-18.498 4.918.194 9.933.292 15.03.292 5.236 0 10.412-.12 15.507-.346-5.002 6.8-10.054 13.015-15.08 18.55zm52.38-58.02c3.433 7.828 6.328 15.4 8.626 22.6-7.45 1.7-15.49 3.068-23.963 4.085 2.715-4.305 5.344-8.663 7.886-13.073 2.585-4.48 5.07-9.02 7.45-13.61zm-16.957 8.13c-3.892 6.76-8.002 13.392-12.325 19.885-7.62.544-15.498.825-23.524.825-7.994 0-15.77-.25-23.26-.734-4.434-6.477-8.622-13.12-12.554-19.915-3.914-6.758-7.57-13.662-10.96-20.698 3.38-7.038 7.026-13.946 10.927-20.71v.002c3.898-6.766 8.053-13.38 12.455-19.83 7.64-.578 15.473-.88 23.392-.88 7.953 0 15.797.304 23.435.886 4.357 6.44 8.485 13.032 12.377 19.763 3.913 6.748 7.607 13.622 11.074 20.61-3.43 7.06-7.113 13.997-11.038 20.795zm22.64-122.55c8.6 4.962 11.947 24.968 6.542 51.205-.355 1.71-.74 3.41-1.155 5.107-10.658-2.46-22.232-4.29-34.35-5.427-7.058-10.05-14.37-19.19-21.714-27.1 1.924-1.856 3.894-3.663 5.908-5.42 18.966-16.506 36.69-23.022 44.768-18.364zm-58.49 78.71c12.67 0 22.94 10.27 22.94 22.938 0 12.67-10.27 22.94-22.94 22.94-12.668 0-22.94-10.27-22.94-22.94 0-12.668 10.272-22.94 22.94-22.94z" fill="#53C1DE" fill-rule="evenodd"/></svg>