<svg width="256" height="256" viewBox="0 0 256 256" xmlns="http://www.w3.org/2000/svg"><title>WebSockets</title><path d="M81.962 206.628L64.15 188.81l11.07-11.08c6.088-6.092 11.07-11.305 11.07-11.584 0-.278-12.372-12.876-27.493-27.995l-27.492-27.488V79.857H63.38V97.94l11.33 11.323c6.233 6.228 11.56 11.323 11.84 11.323.28 0 8.066-7.56 17.303-16.8l16.794-16.8-11.702-11.71-11.702-11.71h-65.69L15.776 47.782 0 32h110.985l27.485 27.49 27.485 27.488-5.588 5.606-5.59 5.605 10.814 10.82 10.813 10.82v45.3l-22.146-22.142-22.147-22.142-5.725 5.725-5.725 5.727 22.14 22.146 22.143 22.146h-45.298l-10.82-10.813-10.822-10.812-5.605 5.587-5.605 5.588 13.363 13.37 13.364 13.37h111l15.777 15.784 15.776 15.782H99.775l-17.813-17.818zm110.733-61.473V113.72l-13.362-13.37-13.362-13.368 11.326-11.324 11.324-11.325 17.82 17.814 17.82 17.815V176.59H192.695v-31.435z" fill="#000" fill-rule="evenodd"/></svg>